<svg version="1.1" xmlns="http://www.w3.org/2000/svg" viewBox="0 0 354.9999999999981 1313" width="354.9999999999981" height="1313" filter="invert(93%) hue-rotate(180deg)">
  <!-- svg-source:excalidraw -->
  
  <defs>
    <style class="style-fonts">
      @font-face {
        font-family: "Virgil";
        src: url("https://excalidraw.com/Virgil.woff2");
      }
      @font-face {
        font-family: "Cascadia";
        src: url("https://excalidraw.com/Cascadia.woff2");
      }
    </style>
  </defs>
  <rect x="0" y="0" width="354.9999999999981" height="1313" fill="#ffffff"></rect><g transform="translate(162.99999999999812 17) rotate(0 18.54166603088379 7.600000000000001)"><text x="0" y="0" font-family="Cascadia, Segoe UI Emoji" font-size="12.666666666666664px" fill="#000000" text-anchor="start" style="white-space: pre;" direction="ltr" dominant-baseline="text-before-edge">START</text></g><g stroke-linecap="round" transform="translate(147.99999999999812 10) rotate(0 34 14.5)"><path d="M68 14.5 C68 15.34, 67.83 16.19, 67.48 17.02 C67.14 17.84, 66.62 18.67, 65.95 19.46 C65.28 20.25, 64.43 21.02, 63.44 21.75 C62.46 22.48, 61.31 23.18, 60.05 23.82 C58.78 24.46, 57.36 25.07, 55.85 25.61 C54.35 26.15, 52.7 26.64, 51 27.06 C49.3 27.48, 47.48 27.84, 45.63 28.13 C43.78 28.41, 41.84 28.63, 39.9 28.78 C37.97 28.93, 35.97 29, 34 29 C32.03 29, 30.03 28.93, 28.1 28.78 C26.16 28.63, 24.22 28.41, 22.37 28.13 C20.52 27.84, 18.7 27.48, 17 27.06 C15.3 26.64, 13.65 26.15, 12.15 25.61 C10.64 25.07, 9.22 24.46, 7.95 23.82 C6.69 23.18, 5.54 22.48, 4.56 21.75 C3.57 21.02, 2.72 20.25, 2.05 19.46 C1.38 18.67, 0.86 17.84, 0.52 17.02 C0.17 16.19, 0 15.34, 0 14.5 C0 13.66, 0.17 12.81, 0.52 11.98 C0.86 11.16, 1.38 10.33, 2.05 9.54 C2.72 8.75, 3.57 7.98, 4.56 7.25 C5.54 6.52, 6.69 5.82, 7.95 5.18 C9.22 4.54, 10.64 3.93, 12.15 3.39 C13.65 2.85, 15.3 2.36, 17 1.94 C18.7 1.52, 20.52 1.16, 22.37 0.87 C24.22 0.59, 26.16 0.37, 28.1 0.22 C30.03 0.07, 32.03 0, 34 0 C35.97 0, 37.97 0.07, 39.9 0.22 C41.84 0.37, 43.78 0.59, 45.63 0.87 C47.48 1.16, 49.3 1.52, 51 1.94 C52.7 2.36, 54.35 2.85, 55.85 3.39 C57.36 3.93, 58.78 4.54, 60.05 5.18 C61.31 5.82, 62.46 6.52, 63.44 7.25 C64.43 7.98, 65.28 8.75, 65.95 9.54 C66.62 10.33, 67.14 11.16, 67.48 11.98 C67.83 12.81, 67.91 14.08, 68 14.5 C68.09 14.92, 68.09 14.08, 68 14.5" stroke="#000000" stroke-width="1" fill="none"></path></g><g stroke-linecap="round"><g transform="translate(175.99999999999812 1237) rotate(0 0 14.5)"><path d="M0 0 C0 6.13, 0 12.25, 0 29 M0 0 C0 6.1, 0 12.21, 0 29" stroke="#000000" stroke-width="1" fill="none"></path></g><g transform="translate(175.99999999999812 1237) rotate(0 0 14.5)"><path d="M0 29 L-6.13 15.86 L6.13 15.86 L0 29" stroke="none" stroke-width="0" fill="#000000" fill-rule="evenodd"></path><path d="M0 29 C-1.29 26.22, -2.59 23.45, -6.13 15.86 M0 29 C-1.29 26.23, -2.58 23.47, -6.13 15.86 M-6.13 15.86 C-1.96 15.86, 2.2 15.86, 6.13 15.86 M-6.13 15.86 C-3.33 15.86, -0.54 15.86, 6.13 15.86 M6.13 15.86 C4.52 19.31, 2.91 22.76, 0 29 M6.13 15.86 C4.31 19.76, 2.49 23.65, 0 29 M0 29 C0 29, 0 29, 0 29 M0 29 C0 29, 0 29, 0 29" stroke="#000000" stroke-width="1" fill="none"></path></g></g><mask></mask><g stroke-linecap="round"><g transform="translate(175.99999999999812 1132) rotate(0 0 14.5)"><path d="M0 0 C0 8.55, 0 17.1, 0 29 M0 0 C0 9.24, 0 18.49, 0 29" stroke="#000000" stroke-width="1" fill="none"></path></g><g transform="translate(175.99999999999812 1132) rotate(0 0 14.5)"><path d="M0 29 L-6.13 15.86 L6.13 15.86 L0 29" stroke="none" stroke-width="0" fill="#000000" fill-rule="evenodd"></path><path d="M0 29 C-1.81 25.13, -3.61 21.25, -6.13 15.86 M0 29 C-1.95 24.81, -3.91 20.62, -6.13 15.86 M-6.13 15.86 C-2.19 15.86, 1.74 15.86, 6.13 15.86 M-6.13 15.86 C-1.78 15.86, 2.57 15.86, 6.13 15.86 M6.13 15.86 C4.05 20.3, 1.98 24.75, 0 29 M6.13 15.86 C4.63 19.06, 3.14 22.26, 0 29 M0 29 C0 29, 0 29, 0 29 M0 29 C0 29, 0 29, 0 29" stroke="#000000" stroke-width="1" fill="none"></path></g></g><mask></mask><g stroke-linecap="round"><g transform="translate(177.99999999999812 948) rotate(0 0 13.5)"><path d="M0 0 C0 8.89, 0 17.79, 0 27 M0 0 C0 8.54, 0 17.07, 0 27" stroke="#000000" stroke-width="1" fill="none"></path></g><g transform="translate(177.99999999999812 948) rotate(0 0 13.5)"><path d="M0 27 L-5.71 14.76 L5.71 14.76 L0 27" stroke="none" stroke-width="0" fill="#000000" fill-rule="evenodd"></path><path d="M0 27 C-1.88 22.97, -3.76 18.94, -5.71 14.76 M0 27 C-1.8 23.13, -3.61 19.26, -5.71 14.76 M-5.71 14.76 C-1.83 14.76, 2.04 14.76, 5.71 14.76 M-5.71 14.76 C-3.18 14.76, -0.66 14.76, 5.71 14.76 M5.71 14.76 C4.27 17.84, 2.84 20.91, 0 27 M5.71 14.76 C3.89 18.66, 2.08 22.55, 0 27 M0 27 C0 27, 0 27, 0 27 M0 27 C0 27, 0 27, 0 27" stroke="#000000" stroke-width="1" fill="none"></path></g></g><mask></mask><g stroke-linecap="round"><g transform="translate(177.99999999999812 1058) rotate(0 0 14)"><path d="M0 0 C0 8.33, 0 16.66, 0 28 M0 0 C0 8.64, 0 17.28, 0 28" stroke="#000000" stroke-width="1" fill="none"></path></g><g transform="translate(177.99999999999812 1058) rotate(0 0 14)"><path d="M0 28 L-5.92 15.31 L5.92 15.31 L0 28" stroke="none" stroke-width="0" fill="#000000" fill-rule="evenodd"></path><path d="M0 28 C-1.76 24.23, -3.52 20.45, -5.92 15.31 M0 28 C-1.83 24.08, -3.65 20.17, -5.92 15.31 M-5.92 15.31 C-2.4 15.31, 1.11 15.31, 5.92 15.31 M-5.92 15.31 C-3.37 15.31, -0.82 15.31, 5.92 15.31 M5.92 15.31 C4.48 18.38, 3.05 21.45, 0 28 M5.92 15.31 C4.03 19.35, 2.15 23.39, 0 28 M0 28 C0 28, 0 28, 0 28 M0 28 C0 28, 0 28, 0 28" stroke="#000000" stroke-width="1" fill="none"></path></g></g><mask></mask><g stroke-linecap="round"><g transform="translate(174.99999999999812 879) rotate(0 0 13.5)"><path d="M0 0 C0 8.66, 0 17.31, 0 27 M0 0 C0 6.59, 0 13.18, 0 27" stroke="#000000" stroke-width="1" fill="none"></path></g><g transform="translate(174.99999999999812 879) rotate(0 0 13.5)"><path d="M0 27 L-5.71 14.76 L5.71 14.76 L0 27" stroke="none" stroke-width="0" fill="#000000" fill-rule="evenodd"></path><path d="M0 27 C-1.83 23.08, -3.66 19.15, -5.71 14.76 M0 27 C-1.39 24.01, -2.78 21.03, -5.71 14.76 M-5.71 14.76 C-2.77 14.76, 0.16 14.76, 5.71 14.76 M-5.71 14.76 C-2.53 14.76, 0.65 14.76, 5.71 14.76 M5.71 14.76 C4.56 17.22, 3.41 19.68, 0 27 M5.71 14.76 C3.95 18.52, 2.2 22.28, 0 27 M0 27 C0 27, 0 27, 0 27 M0 27 C0 27, 0 27, 0 27" stroke="#000000" stroke-width="1" fill="none"></path></g></g><mask></mask><g stroke-linecap="round"><g transform="translate(174.99999999999812 827) rotate(0 0 14.5)"><path d="M0 0 C0 5.93, 0 11.86, 0 29 M0 0 C0 6.91, 0 13.83, 0 29" stroke="#000000" stroke-width="1" fill="none"></path></g><g transform="translate(174.99999999999812 827) rotate(0 0 14.5)"><path d="M0 29 L-6.13 15.86 L6.13 15.86 L0 29" stroke="none" stroke-width="0" fill="#000000" fill-rule="evenodd"></path><path d="M0 29 C-1.25 26.31, -2.51 23.62, -6.13 15.86 M0 29 C-1.46 25.87, -2.92 22.73, -6.13 15.86 M-6.13 15.86 C-2.59 15.86, 0.95 15.86, 6.13 15.86 M-6.13 15.86 C-1.36 15.86, 3.42 15.86, 6.13 15.86 M6.13 15.86 C4.9 18.5, 3.67 21.14, 0 29 M6.13 15.86 C3.89 20.66, 1.65 25.45, 0 29 M0 29 C0 29, 0 29, 0 29 M0 29 C0 29, 0 29, 0 29" stroke="#000000" stroke-width="1" fill="none"></path></g></g><mask></mask><g stroke-linecap="round"><g transform="translate(174.99999999999812 720) rotate(0 0 13.5)"><path d="M0 0 C0 9.23, 0 18.46, 0 27 M0 0 C0 6.79, 0 13.58, 0 27" stroke="#000000" stroke-width="1" fill="none"></path></g><g transform="translate(174.99999999999812 720) rotate(0 0 13.5)"><path d="M0 27 L-5.71 14.76 L5.71 14.76 L0 27" stroke="none" stroke-width="0" fill="#000000" fill-rule="evenodd"></path><path d="M0 27 C-1.95 22.82, -3.9 18.64, -5.71 14.76 M0 27 C-1.44 23.92, -2.87 20.85, -5.71 14.76 M-5.71 14.76 C-1.45 14.76, 2.81 14.76, 5.71 14.76 M-5.71 14.76 C-2.95 14.76, -0.2 14.76, 5.71 14.76 M5.71 14.76 C3.45 19.61, 1.19 24.45, 0 27 M5.71 14.76 C3.7 19.06, 1.7 23.35, 0 27 M0 27 C0 27, 0 27, 0 27 M0 27 C0 27, 0 27, 0 27" stroke="#000000" stroke-width="1" fill="none"></path></g></g><mask></mask><g stroke-linecap="round"><g transform="translate(176.99999999999812 566) rotate(0 0 13.5)"><path d="M0 0 C0 5.95, 0 11.9, 0 27 M0 0 C0 10.19, 0 20.38, 0 27" stroke="#000000" stroke-width="1" fill="none"></path></g><g transform="translate(176.99999999999812 566) rotate(0 0 13.5)"><path d="M0 27 L-5.71 14.76 L5.71 14.76 L0 27" stroke="none" stroke-width="0" fill="#000000" fill-rule="evenodd"></path><path d="M0 27 C-1.26 24.3, -2.52 21.61, -5.71 14.76 M0 27 C-2.15 22.38, -4.31 17.76, -5.71 14.76 M-5.71 14.76 C-2.88 14.76, -0.06 14.76, 5.71 14.76 M-5.71 14.76 C-2.55 14.76, 0.6 14.76, 5.71 14.76 M5.71 14.76 C3.82 18.81, 1.94 22.85, 0 27 M5.71 14.76 C4.02 18.38, 2.33 22, 0 27 M0 27 C0 27, 0 27, 0 27 M0 27 C0 27, 0 27, 0 27" stroke="#000000" stroke-width="1" fill="none"></path></g></g><mask></mask><g stroke-linecap="round"><g transform="translate(178.99999999999812 493) rotate(0 0 14.5)"><path d="M0 0 C0 9.33, 0 18.66, 0 29 M0 0 C0 7.85, 0 15.7, 0 29" stroke="#000000" stroke-width="1" fill="none"></path></g><g transform="translate(178.99999999999812 493) rotate(0 0 14.5)"><path d="M0 29 L-6.13 15.86 L6.13 15.86 L0 29" stroke="none" stroke-width="0" fill="#000000" fill-rule="evenodd"></path><path d="M0 29 C-1.97 24.77, -3.94 20.55, -6.13 15.86 M0 29 C-1.66 25.44, -3.32 21.88, -6.13 15.86 M-6.13 15.86 C-1.58 15.86, 2.97 15.86, 6.13 15.86 M-6.13 15.86 C-2.46 15.86, 1.2 15.86, 6.13 15.86 M6.13 15.86 C4.56 19.21, 3 22.56, 0 29 M6.13 15.86 C3.74 20.98, 1.35 26.1, 0 29 M0 29 C0 29, 0 29, 0 29 M0 29 C0 29, 0 29, 0 29" stroke="#000000" stroke-width="1" fill="none"></path></g></g><mask></mask><g stroke-linecap="round"><g transform="translate(176.99999999999812 616) rotate(0 -0.3023388013642716 13.202127659574444)"><path d="M0 0 C-0.13 5.55, -0.25 11.1, -0.6 26.4 M0 0 C-0.24 10.5, -0.48 21.01, -0.6 26.4" stroke="#000000" stroke-width="1" fill="none"></path></g><g transform="translate(176.99999999999812 616) rotate(0 -0.3023388013642716 13.202127659574444)"><path d="M-0.6 26.4 L-5.91 14.31 L5.25 14.57 L-0.6 26.4" stroke="none" stroke-width="0" fill="#000000" fill-rule="evenodd"></path><path d="M-0.6 26.4 C-1.72 23.86, -2.84 21.32, -5.91 14.31 M-0.6 26.4 C-2.72 21.59, -4.83 16.78, -5.91 14.31 M-5.91 14.31 C-1.61 14.41, 2.69 14.51, 5.25 14.57 M-5.91 14.31 C-1.46 14.41, 2.98 14.51, 5.25 14.57 M5.25 14.57 C3.15 18.8, 1.06 23.04, -0.6 26.4 M5.25 14.57 C3.66 17.79, 2.06 21.01, -0.6 26.4 M-0.6 26.4 C-0.6 26.4, -0.6 26.4, -0.6 26.4 M-0.6 26.4 C-0.6 26.4, -0.6 26.4, -0.6 26.4" stroke="#000000" stroke-width="1" fill="none"></path></g></g><mask></mask><g stroke-linecap="round"><g transform="translate(179.99999999999812 421) rotate(0 0 14.5)"><path d="M0 0 C0 6.43, 0 12.86, 0 29 M0 0 C0 6.09, 0 12.19, 0 29" stroke="#000000" stroke-width="1" fill="none"></path></g><g transform="translate(179.99999999999812 421) rotate(0 0 14.5)"><path d="M0 29 L-6.13 15.86 L6.13 15.86 L0 29" stroke="none" stroke-width="0" fill="#000000" fill-rule="evenodd"></path><path d="M0 29 C-1.36 26.09, -2.72 23.17, -6.13 15.86 M0 29 C-1.29 26.24, -2.57 23.48, -6.13 15.86 M-6.13 15.86 C-3.11 15.86, -0.1 15.86, 6.13 15.86 M-6.13 15.86 C-2.13 15.86, 1.88 15.86, 6.13 15.86 M6.13 15.86 C3.81 20.83, 1.49 25.8, 0 29 M6.13 15.86 C4.13 20.15, 2.13 24.43, 0 29 M0 29 C0 29, 0 29, 0 29 M0 29 C0 29, 0 29, 0 29" stroke="#000000" stroke-width="1" fill="none"></path></g></g><mask></mask><g stroke-linecap="round"><g transform="translate(178.92270148038966 308.00000000000006) rotate(0 0.21918689155847915 14.445642519130274)"><path d="M0 0 C0.17 11.35, 0.34 22.7, 0.44 28.89 M0 0 C0.11 7.46, 0.23 14.93, 0.44 28.89" stroke="#000000" stroke-width="1" fill="none"></path></g><g transform="translate(178.92270148038966 308.00000000000006) rotate(0 0.21918689155847915 14.445642519130274)"><path d="M0.44 28.89 L-5.87 15.89 L6.34 15.71 L0.44 28.89" stroke="none" stroke-width="0" fill="#000000" fill-rule="evenodd"></path><path d="M0.44 28.89 C-2.04 23.78, -4.51 18.68, -5.87 15.89 M0.44 28.89 C-1.19 25.53, -2.82 22.17, -5.87 15.89 M-5.87 15.89 C-1.44 15.82, 2.98 15.76, 6.34 15.71 M-5.87 15.89 C-3.33 15.85, -0.79 15.81, 6.34 15.71 M6.34 15.71 C4.54 19.73, 2.74 23.76, 0.44 28.89 M6.34 15.71 C4.81 19.13, 3.28 22.55, 0.44 28.89 M0.44 28.89 C0.44 28.89, 0.44 28.89, 0.44 28.89 M0.44 28.89 C0.44 28.89, 0.44 28.89, 0.44 28.89" stroke="#000000" stroke-width="1" fill="none"></path></g></g><mask></mask><g stroke-linecap="round"><g transform="translate(178.50932983861588 236) rotate(0 -0.3077948649126938 14)"><path d="M0 0 C-0.18 8.41, -0.37 16.83, -0.62 28 M0 0 C-0.15 7.01, -0.31 14.02, -0.62 28" stroke="#000000" stroke-width="1" fill="none"></path></g><g transform="translate(178.50932983861588 236) rotate(0 -0.3077948649126938 14)"><path d="M-0.62 28 L-6.25 15.18 L5.58 15.44 L-0.62 28" stroke="none" stroke-width="0" fill="#000000" fill-rule="evenodd"></path><path d="M-0.62 28 C-2.31 24.15, -4 20.3, -6.25 15.18 M-0.62 28 C-2.03 24.79, -3.44 21.58, -6.25 15.18 M-6.25 15.18 C-3.02 15.25, 0.22 15.32, 5.58 15.44 M-6.25 15.18 C-3.43 15.24, -0.6 15.31, 5.58 15.44 M5.58 15.44 C4.08 18.49, 2.57 21.53, -0.62 28 M5.58 15.44 C3.26 20.14, 0.94 24.85, -0.62 28 M-0.62 28 C-0.62 28, -0.62 28, -0.62 28 M-0.62 28 C-0.62 28, -0.62 28, -0.62 28" stroke="#000000" stroke-width="1" fill="none"></path></g></g><mask></mask><g stroke-linecap="round"><g transform="translate(181.99999999999812 163) rotate(0 0 13.5)"><path d="M0 0 C0 9.94, 0 19.88, 0 27 M0 0 C0 6.88, 0 13.76, 0 27" stroke="#000000" stroke-width="1" fill="none"></path></g><g transform="translate(181.99999999999812 163) rotate(0 0 13.5)"><path d="M0 27 L-5.71 14.76 L5.71 14.76 L0 27" stroke="none" stroke-width="0" fill="#000000" fill-rule="evenodd"></path><path d="M0 27 C-2.1 22.5, -4.2 17.99, -5.71 14.76 M0 27 C-1.45 23.88, -2.91 20.76, -5.71 14.76 M-5.71 14.76 C-2.15 14.76, 1.4 14.76, 5.71 14.76 M-5.71 14.76 C-2.19 14.76, 1.32 14.76, 5.71 14.76 M5.71 14.76 C3.72 19.02, 1.74 23.28, 0 27 M5.71 14.76 C4.12 18.16, 2.54 21.55, 0 27 M0 27 C0 27, 0 27, 0 27 M0 27 C0 27, 0 27, 0 27" stroke="#000000" stroke-width="1" fill="none"></path></g></g><mask></mask><g stroke-linecap="round"><g transform="translate(181.99999999999812 116) rotate(0 0 13)"><path d="M0 0 C0 8.02, 0 16.04, 0 26 M0 0 C0 7.33, 0 14.66, 0 26" stroke="#000000" stroke-width="1" fill="none"></path></g><g transform="translate(181.99999999999812 116) rotate(0 0 13)"><path d="M0 26 L-5.49 14.22 L5.49 14.22 L0 26" stroke="none" stroke-width="0" fill="#000000" fill-rule="evenodd"></path><path d="M0 26 C-1.69 22.37, -3.39 18.73, -5.49 14.22 M0 26 C-1.55 22.68, -3.1 19.36, -5.49 14.22 M-5.49 14.22 C-1.38 14.22, 2.74 14.22, 5.49 14.22 M-5.49 14.22 C-3.16 14.22, -0.82 14.22, 5.49 14.22 M5.49 14.22 C4.12 17.17, 2.75 20.11, 0 26 M5.49 14.22 C4.18 17.04, 2.87 19.86, 0 26 M0 26 C0 26, 0 26, 0 26 M0 26 C0 26, 0 26, 0 26" stroke="#000000" stroke-width="1" fill="none"></path></g></g><mask></mask><g stroke-linecap="round"><g transform="translate(182.99999999999812 40) rotate(0 0 16.5)"><path d="M0 0 C0 12.46, 0 24.91, 0 33 M0 0 C0 11.59, 0 23.17, 0 33" stroke="#000000" stroke-width="1" fill="none"></path></g><g transform="translate(182.99999999999812 40) rotate(0 0 16.5)"><path d="M0 33 L-6.34 19.41 L6.34 19.41 L0 33" stroke="none" stroke-width="0" fill="#000000" fill-rule="evenodd"></path><path d="M0 33 C-2.39 27.87, -4.79 22.74, -6.34 19.41 M0 33 C-2.23 28.23, -4.45 23.45, -6.34 19.41 M-6.34 19.41 C-3.72 19.41, -1.1 19.41, 6.34 19.41 M-6.34 19.41 C-1.48 19.41, 3.39 19.41, 6.34 19.41 M6.34 19.41 C3.85 24.75, 1.35 30.1, 0 33 M6.34 19.41 C4.22 23.96, 2.09 28.51, 0 33 M0 33 C0 33, 0 33, 0 33 M0 33 C0 33, 0 33, 0 33" stroke="#000000" stroke-width="1" fill="none"></path></g></g><mask></mask><g stroke-linecap="round"><g transform="translate(131.3120300751861 73) rotate(0 40.68796992481202 21)"><path d="M0 0 C34.69 0, 69.39 0, 109.19 0 M0 0 C40.93 0, 81.87 0, 109.19 0 M109.19 0 C105.18 10.74, 101.17 21.49, 93.53 42 M109.19 0 C103.65 14.86, 98.11 29.72, 93.53 42 M93.53 42 C56.44 42, 19.35 42, -27.81 42 M93.53 42 C45.03 42, -3.46 42, -27.81 42 M-27.81 42 C-17.65 26.66, -7.49 11.31, 0 0 M-27.81 42 C-22.09 33.36, -16.37 24.72, 0 0" stroke="#000000" stroke-width="1" fill="none"></path></g></g><mask></mask><g transform="translate(132.09999847411922 79) rotate(0 47.70000076293945 16.301243299972015)"><text x="47.70000076293945" y="0" font-family="Cascadia, Segoe UI Emoji" font-size="13.584369416643343px" fill="#000000" text-anchor="middle" style="white-space: pre;" direction="ltr" dominant-baseline="text-before-edge">RENDER LOGIN</text><text x="47.70000076293945" y="16.30124329997201" font-family="Cascadia, Segoe UI Emoji" font-size="13.584369416643343px" fill="#000000" text-anchor="middle" style="white-space: pre;" direction="ltr" dominant-baseline="text-before-edge">PAGE</text></g><g stroke-linecap="round" transform="translate(163.99999999999812 858) rotate(0 11 10)"><path d="M22 10 C22 10.58, 21.94 11.17, 21.83 11.74 C21.72 12.31, 21.55 12.88, 21.34 13.42 C21.12 13.96, 20.84 14.5, 20.53 15 C20.21 15.5, 19.84 15.98, 19.43 16.43 C19.02 16.87, 18.56 17.29, 18.07 17.66 C17.58 18.03, 17.05 18.37, 16.5 18.66 C15.95 18.95, 15.36 19.2, 14.76 19.4 C14.16 19.59, 13.54 19.75, 12.91 19.85 C12.28 19.95, 11.64 20, 11 20 C10.36 20, 9.72 19.95, 9.09 19.85 C8.46 19.75, 7.84 19.59, 7.24 19.4 C6.64 19.2, 6.05 18.95, 5.5 18.66 C4.95 18.37, 4.42 18.03, 3.93 17.66 C3.44 17.29, 2.98 16.87, 2.57 16.43 C2.16 15.98, 1.79 15.5, 1.47 15 C1.16 14.5, 0.88 13.96, 0.66 13.42 C0.45 12.88, 0.28 12.31, 0.17 11.74 C0.06 11.17, 0 10.58, 0 10 C0 9.42, 0.06 8.83, 0.17 8.26 C0.28 7.69, 0.45 7.12, 0.66 6.58 C0.88 6.04, 1.16 5.5, 1.47 5 C1.79 4.5, 2.16 4.02, 2.57 3.57 C2.98 3.13, 3.44 2.71, 3.93 2.34 C4.42 1.97, 4.95 1.63, 5.5 1.34 C6.05 1.05, 6.64 0.8, 7.24 0.6 C7.84 0.41, 8.46 0.25, 9.09 0.15 C9.72 0.05, 10.36 0, 11 0 C11.64 0, 12.28 0.05, 12.91 0.15 C13.54 0.25, 14.16 0.41, 14.76 0.6 C15.36 0.8, 15.95 1.05, 16.5 1.34 C17.05 1.63, 17.58 1.97, 18.07 2.34 C18.56 2.71, 19.02 3.13, 19.43 3.57 C19.84 4.02, 20.21 4.5, 20.53 5 C20.84 5.5, 21.12 6.04, 21.34 6.58 C21.55 7.12, 21.72 7.69, 21.83 8.26 C21.94 8.83, 21.97 9.71, 22 10 C22.03 10.29, 22.03 9.71, 22 10" stroke="#000000" stroke-width="1" fill="none"></path></g><g stroke-linecap="round" transform="translate(164.99999999999812 595) rotate(0 11 10)"><path d="M22 10 C22 10.58, 21.94 11.17, 21.83 11.74 C21.72 12.31, 21.55 12.88, 21.34 13.42 C21.12 13.96, 20.84 14.5, 20.53 15 C20.21 15.5, 19.84 15.98, 19.43 16.43 C19.02 16.87, 18.56 17.29, 18.07 17.66 C17.58 18.03, 17.05 18.37, 16.5 18.66 C15.95 18.95, 15.36 19.2, 14.76 19.4 C14.16 19.59, 13.54 19.75, 12.91 19.85 C12.28 19.95, 11.64 20, 11 20 C10.36 20, 9.72 19.95, 9.09 19.85 C8.46 19.75, 7.84 19.59, 7.24 19.4 C6.64 19.2, 6.05 18.95, 5.5 18.66 C4.95 18.37, 4.42 18.03, 3.93 17.66 C3.44 17.29, 2.98 16.87, 2.57 16.43 C2.16 15.98, 1.79 15.5, 1.47 15 C1.16 14.5, 0.88 13.96, 0.66 13.42 C0.45 12.88, 0.28 12.31, 0.17 11.74 C0.06 11.17, 0 10.58, 0 10 C0 9.42, 0.06 8.83, 0.17 8.26 C0.28 7.69, 0.45 7.12, 0.66 6.58 C0.88 6.04, 1.16 5.5, 1.47 5 C1.79 4.5, 2.16 4.02, 2.57 3.57 C2.98 3.13, 3.44 2.71, 3.93 2.34 C4.42 1.97, 4.95 1.63, 5.5 1.34 C6.05 1.05, 6.64 0.8, 7.24 0.6 C7.84 0.41, 8.46 0.25, 9.09 0.15 C9.72 0.05, 10.36 0, 11 0 C11.64 0, 12.28 0.05, 12.91 0.15 C13.54 0.25, 14.16 0.41, 14.76 0.6 C15.36 0.8, 15.95 1.05, 16.5 1.34 C17.05 1.63, 17.58 1.97, 18.07 2.34 C18.56 2.71, 19.02 3.13, 19.43 3.57 C19.84 4.02, 20.21 4.5, 20.53 5 C20.84 5.5, 21.12 6.04, 21.34 6.58 C21.55 7.12, 21.72 7.69, 21.83 8.26 C21.94 8.83, 21.97 9.71, 22 10 C22.03 10.29, 22.03 9.71, 22 10" stroke="#000000" stroke-width="1" fill="none"></path></g><g stroke-linecap="round" transform="translate(170.99999999999812 142) rotate(0 11 10)"><path d="M22 10 C22 10.58, 21.94 11.17, 21.83 11.74 C21.72 12.31, 21.55 12.88, 21.34 13.42 C21.12 13.96, 20.84 14.5, 20.53 15 C20.21 15.5, 19.84 15.98, 19.43 16.43 C19.02 16.87, 18.56 17.29, 18.07 17.66 C17.58 18.03, 17.05 18.37, 16.5 18.66 C15.95 18.95, 15.36 19.2, 14.76 19.4 C14.16 19.59, 13.54 19.75, 12.91 19.85 C12.28 19.95, 11.64 20, 11 20 C10.36 20, 9.72 19.95, 9.09 19.85 C8.46 19.75, 7.84 19.59, 7.24 19.4 C6.64 19.2, 6.05 18.95, 5.5 18.66 C4.95 18.37, 4.42 18.03, 3.93 17.66 C3.44 17.29, 2.98 16.87, 2.57 16.43 C2.16 15.98, 1.79 15.5, 1.47 15 C1.16 14.5, 0.88 13.96, 0.66 13.42 C0.45 12.88, 0.28 12.31, 0.17 11.74 C0.06 11.17, 0 10.58, 0 10 C0 9.42, 0.06 8.83, 0.17 8.26 C0.28 7.69, 0.45 7.12, 0.66 6.58 C0.88 6.04, 1.16 5.5, 1.47 5 C1.79 4.5, 2.16 4.02, 2.57 3.57 C2.98 3.13, 3.44 2.71, 3.93 2.34 C4.42 1.97, 4.95 1.63, 5.5 1.34 C6.05 1.05, 6.64 0.8, 7.24 0.6 C7.84 0.41, 8.46 0.25, 9.09 0.15 C9.72 0.05, 10.36 0, 11 0 C11.64 0, 12.28 0.05, 12.91 0.15 C13.54 0.25, 14.16 0.41, 14.76 0.6 C15.36 0.8, 15.95 1.05, 16.5 1.34 C17.05 1.63, 17.58 1.97, 18.07 2.34 C18.56 2.71, 19.02 3.13, 19.43 3.57 C19.84 4.02, 20.21 4.5, 20.53 5 C20.84 5.5, 21.12 6.04, 21.34 6.58 C21.55 7.12, 21.72 7.69, 21.83 8.26 C21.94 8.83, 21.97 9.71, 22 10 C22.03 10.29, 22.03 9.71, 22 10" stroke="#000000" stroke-width="1" fill="none"></path></g><g transform="translate(126.04999923705867 197) rotate(0 53.95000076293945 16.996420211677076)"><text x="53.95000076293945" y="0" font-family="Cascadia, Segoe UI Emoji" font-size="14.1636835097309px" fill="#000000" text-anchor="middle" style="white-space: pre;" direction="ltr" dominant-baseline="text-before-edge">ENTER EMAIL &amp;</text><text x="53.95000076293945" y="16.996420211677076" font-family="Cascadia, Segoe UI Emoji" font-size="14.1636835097309px" fill="#000000" text-anchor="middle" style="white-space: pre;" direction="ltr" dominant-baseline="text-before-edge">PASSWORD</text></g><g stroke-linecap="round"><g transform="translate(128.54511278195304 190) rotate(0 43.95488721804509 22.5)"><path d="M0 0 C29.23 0, 58.45 0, 117.95 0 M0 0 C29.32 0, 58.64 0, 117.95 0 M117.95 0 C110.88 13, 103.81 26, 93.47 45 M117.95 0 C109.08 16.31, 100.21 32.62, 93.47 45 M93.47 45 C54.47 45, 15.46 45, -30.05 45 M93.47 45 C54.32 45, 15.17 45, -30.05 45 M-30.05 45 C-19.15 28.68, -8.25 12.35, 0 0 M-30.05 45 C-22.13 33.15, -14.22 21.3, 0 0" stroke="#000000" stroke-width="1" fill="none"></path></g></g><mask></mask><g transform="translate(102.80000305175594 270) rotate(0 74.69999694824219 16.80000000000001)"><text x="74.69999694824219" y="0" font-family="Cascadia, Segoe UI Emoji" font-size="14.17305255303426px" fill="#000000" text-anchor="middle" style="white-space: pre;" direction="ltr" dominant-baseline="text-before-edge">MAKE HTTP REQUEST</text><text x="74.69999694824219" y="16.8" font-family="Cascadia, Segoe UI Emoji" font-size="14.17305255303426px" fill="#000000" text-anchor="middle" style="white-space: pre;" direction="ltr" dominant-baseline="text-before-edge">FOR AUTHENTICATION</text></g><g stroke-linecap="round" transform="translate(99.99999999999812 265) rotate(0 78 21)"><path d="M0 0 C48.66 0, 97.31 0, 156 0 M0 0 C56.66 0, 113.31 0, 156 0 M156 0 C156 16.1, 156 32.2, 156 42 M156 0 C156 11.41, 156 22.82, 156 42 M156 42 C98.56 42, 41.12 42, 0 42 M156 42 C117.04 42, 78.07 42, 0 42 M0 42 C0 28.28, 0 14.55, 0 0 M0 42 C0 32.78, 0 23.57, 0 0" stroke="#000000" stroke-width="1" fill="none"></path></g><g transform="translate(112.93333435058406 358) rotate(0 67.06666564941406 17.153818799980257)"><text x="67.06666564941406" y="0" font-family="Cascadia, Segoe UI Emoji" font-size="14.294848999983543px" fill="#000000" text-anchor="middle" style="white-space: pre;" direction="ltr" dominant-baseline="text-before-edge">SUCCESSFUL</text><text x="67.06666564941406" y="17.15381879998025" font-family="Cascadia, Segoe UI Emoji" font-size="14.294848999983543px" fill="#000000" text-anchor="middle" style="white-space: pre;" direction="ltr" dominant-baseline="text-before-edge">AUTHENTICATION ?</text></g><g stroke-linecap="round" transform="translate(89.99999999999812 338) rotate(0 89.5 41)"><path d="M90 0 C119.92 14.12, 149.84 28.24, 179 42 M90 0 C110.03 9.45, 130.06 18.9, 179 42 M179 42 C151.65 54.29, 124.3 66.58, 90 82 M179 42 C158.8 51.08, 138.59 60.16, 90 82 M90 82 C67.3 71.91, 44.6 61.82, 0 42 M90 82 C61.65 69.4, 33.3 56.8, 0 42 M0 42 C28.09 28.89, 56.18 15.78, 90 0 M0 42 C28.02 28.92, 56.04 15.85, 90 0" stroke="#000000" stroke-width="1" fill="none"></path></g><g stroke-linecap="round"><g transform="translate(267.6306306306288 380) rotate(0 2.3693693693693376 -113.49999999999999)"><path d="M0 0 C15.62 0, 31.24 0, 77.37 0 M0 0 C29.78 0, 59.55 0, 77.37 0 M77.37 0 C76.86 -56.54, 76.36 -113.08, 75.33 -227 M77.37 0 C76.92 -50.12, 76.47 -100.25, 75.33 -227 M75.33 -227 C43.45 -227, 11.56 -227, -72.63 -227 M75.33 -227 C31.41 -227, -12.51 -227, -72.63 -227" stroke="#000000" stroke-width="1" fill="none"></path></g><g transform="translate(267.6306306306288 380) rotate(0 2.3693693693693376 -113.49999999999999)"><path d="M-72.63 -227 L-59.04 -233.34 L-59.04 -220.66 L-72.63 -227" stroke="none" stroke-width="0" fill="#000000" fill-rule="evenodd"></path><path d="M-72.63 -227 C-69.89 -228.28, -67.14 -229.56, -59.04 -233.34 M-72.63 -227 C-67.4 -229.44, -62.17 -231.88, -59.04 -233.34 M-59.04 -233.34 C-59.04 -230.18, -59.04 -227.02, -59.04 -220.66 M-59.04 -233.34 C-59.04 -230.54, -59.04 -227.74, -59.04 -220.66 M-59.04 -220.66 C-61.97 -222.03, -64.9 -223.39, -72.63 -227 M-59.04 -220.66 C-63.07 -222.54, -67.11 -224.42, -72.63 -227 M-72.63 -227 C-72.63 -227, -72.63 -227, -72.63 -227 M-72.63 -227 C-72.63 -227, -72.63 -227, -72.63 -227" stroke="#000000" stroke-width="1" fill="none"></path></g></g><mask></mask><g stroke-linecap="round"><g transform="translate(256.58914199570296 788) rotate(0 -10.369622476185214 -91.51092896174862)"><path d="M0 0 C15.99 0, 31.98 0, 47.5 0 M0 0 C12.22 0, 24.45 0, 47.5 0 M47.5 0 C47.59 -46.11, 47.68 -92.21, 47.85 -183.02 M47.5 0 C47.57 -37.02, 47.64 -74.04, 47.85 -183.02 M47.85 -183.02 C18.39 -182.76, -11.07 -182.49, -68.59 -181.98 M47.85 -183.02 C11.42 -182.7, -25 -182.37, -68.59 -181.98" stroke="#000000" stroke-width="1" fill="none"></path></g><g transform="translate(256.58914199570296 788) rotate(0 -10.369622476185214 -91.51092896174862)"><path d="M-68.59 -181.98 L-55.05 -188.44 L-54.94 -175.76 L-68.59 -181.98" stroke="none" stroke-width="0" fill="#000000" fill-rule="evenodd"></path><path d="M-68.59 -181.98 C-64.03 -184.15, -59.48 -186.33, -55.05 -188.44 M-68.59 -181.98 C-65.11 -183.64, -61.62 -185.3, -55.05 -188.44 M-55.05 -188.44 C-55.02 -185.24, -54.99 -182.05, -54.94 -175.76 M-55.05 -188.44 C-55.03 -185.87, -55.01 -183.31, -54.94 -175.76 M-54.94 -175.76 C-58.39 -177.33, -61.85 -178.91, -68.59 -181.98 M-54.94 -175.76 C-59.21 -177.71, -63.48 -179.65, -68.59 -181.98 M-68.59 -181.98 C-68.59 -181.98, -68.59 -181.98, -68.59 -181.98 M-68.59 -181.98 C-68.59 -181.98, -68.59 -181.98, -68.59 -181.98" stroke="#000000" stroke-width="1" fill="none"></path></g></g><mask></mask><g stroke-linecap="round"><g transform="translate(275.6159488131688 1017) rotate(0 -27.39642929365101 -74.08847410030216)"><path d="M0 0 C6.62 0, 13.24 0, 31.59 0 M0 0 C7.91 0, 15.81 0, 31.59 0 M31.59 0 C31.64 -31.46, 31.69 -62.92, 31.82 -148.02 M31.59 0 C31.66 -47.04, 31.74 -94.08, 31.82 -148.02 M31.82 -148.02 C2.75 -148.06, -26.33 -148.1, -86.62 -148.18 M31.82 -148.02 C-0.19 -148.06, -32.21 -148.11, -86.62 -148.18" stroke="#000000" stroke-width="1" fill="none"></path></g><g transform="translate(275.6159488131688 1017) rotate(0 -27.39642929365101 -74.08847410030216)"><path d="M-86.62 -148.18 L-73.01 -154.5 L-73.03 -141.82 L-86.62 -148.18" stroke="none" stroke-width="0" fill="#000000" fill-rule="evenodd"></path><path d="M-86.62 -148.18 C-83.77 -149.5, -80.91 -150.83, -73.01 -154.5 M-86.62 -148.18 C-83.21 -149.76, -79.81 -151.34, -73.01 -154.5 M-73.01 -154.5 C-73.02 -151.8, -73.02 -149.11, -73.03 -141.82 M-73.01 -154.5 C-73.02 -150.47, -73.02 -146.44, -73.03 -141.82 M-73.03 -141.82 C-76.37 -143.38, -79.7 -144.94, -86.62 -148.18 M-73.03 -141.82 C-76.7 -143.54, -80.37 -145.26, -86.62 -148.18 M-86.62 -148.18 C-86.62 -148.18, -86.62 -148.18, -86.62 -148.18 M-86.62 -148.18 C-86.62 -148.18, -86.62 -148.18, -86.62 -148.18" stroke="#000000" stroke-width="1" fill="none"></path></g></g><mask></mask><g stroke-linecap="round"><g transform="translate(97.19860139085148 1202) rotate(0 -10.979081871332113 -166.58847410030205)"><path d="M0 0 C-28.93 0.33, -57.86 0.67, -86.79 1 M0 0 C-33.71 0.39, -67.42 0.78, -86.79 1 M-86.79 1 C-86.94 -122.79, -87.09 -246.58, -87.2 -333.83 M-86.79 1 C-86.94 -115.84, -87.08 -232.69, -87.2 -333.83 M-87.2 -333.83 C-52.03 -333.91, -16.87 -333.99, 65.24 -334.18 M-87.2 -333.83 C-33.47 -333.95, 20.26 -334.07, 65.24 -334.18" stroke="#000000" stroke-width="1" fill="none"></path></g><g transform="translate(97.19860139085148 1202) rotate(0 -10.979081871332113 -166.58847410030205)"><path d="M65.24 -334.18 L51.66 -327.81 L51.63 -340.48 L65.24 -334.18" stroke="none" stroke-width="0" fill="#000000" fill-rule="evenodd"></path><path d="M65.24 -334.18 C60.71 -332.05, 56.19 -329.93, 51.66 -327.81 M65.24 -334.18 C59.97 -331.7, 54.69 -329.23, 51.66 -327.81 M51.66 -327.81 C51.65 -332.49, 51.64 -337.18, 51.63 -340.48 M51.66 -327.81 C51.65 -332.23, 51.64 -336.66, 51.63 -340.48 M51.63 -340.48 C54.77 -339.03, 57.91 -337.57, 65.24 -334.18 M51.63 -340.48 C56.43 -338.26, 61.22 -336.04, 65.24 -334.18 M65.24 -334.18 C65.24 -334.18, 65.24 -334.18, 65.24 -334.18 M65.24 -334.18 C65.24 -334.18, 65.24 -334.18, 65.24 -334.18" stroke="#000000" stroke-width="1" fill="none"></path></g></g><mask></mask><g transform="translate(274.61666679382137 767) rotate(0 8.383333206176758 8.576909399990086)"><text x="8.383333206176758" y="0" font-family="Cascadia, Segoe UI Emoji" font-size="14.294848999983502px" fill="#000000" text-anchor="middle" style="white-space: pre;" direction="ltr" dominant-baseline="text-before-edge">NO</text></g><g transform="translate(57.616666793821366 1183) rotate(0 8.383333206176758 8.576909399990086)"><text x="8.383333206176758" y="0" font-family="Cascadia, Segoe UI Emoji" font-size="14.294848999983502px" fill="#000000" text-anchor="middle" style="white-space: pre;" direction="ltr" dominant-baseline="text-before-edge">NO</text></g><g transform="translate(281.61666679382137 994) rotate(0 8.383333206176758 8.576909399990086)"><text x="8.383333206176758" y="0" font-family="Cascadia, Segoe UI Emoji" font-size="14.294848999983502px" fill="#000000" text-anchor="middle" style="white-space: pre;" direction="ltr" dominant-baseline="text-before-edge">NO</text></g><g transform="translate(138.425000190733 1053) rotate(0 12.574999809265137 8.399999999999977)"><text x="12.574999809265137" y="0" font-family="Cascadia, Segoe UI Emoji" font-size="14.294848999983502px" fill="#000000" text-anchor="middle" style="white-space: pre;" direction="ltr" dominant-baseline="text-before-edge">YES</text></g><g transform="translate(188.425000190733 1239) rotate(0 12.574999809265137 8.399999999999977)"><text x="12.574999809265137" y="0" font-family="Cascadia, Segoe UI Emoji" font-size="14.294848999983502px" fill="#000000" text-anchor="middle" style="white-space: pre;" direction="ltr" dominant-baseline="text-before-edge">YES</text></g><g transform="translate(295.61666679382137 356) rotate(0 8.383333206176758 8.576909399990114)"><text x="8.383333206176758" y="0" font-family="Cascadia, Segoe UI Emoji" font-size="14.294848999983508px" fill="#000000" text-anchor="middle" style="white-space: pre;" direction="ltr" dominant-baseline="text-before-edge">NO</text></g><g transform="translate(119.01666641235164 651) rotate(0 57.983333587646484 33.60000000000002)"><text x="57.983333587646484" y="0" font-family="Cascadia, Segoe UI Emoji" font-size="14.139835307083437px" fill="#000000" text-anchor="middle" style="white-space: pre;" direction="ltr" dominant-baseline="text-before-edge">CONNECT TO</text><text x="57.983333587646484" y="16.8" font-family="Cascadia, Segoe UI Emoji" font-size="14.139835307083437px" fill="#000000" text-anchor="middle" style="white-space: pre;" direction="ltr" dominant-baseline="text-before-edge">MQTT BROKER &amp;</text><text x="57.983333587646484" y="33.6" font-family="Cascadia, Segoe UI Emoji" font-size="14.139835307083437px" fill="#000000" text-anchor="middle" style="white-space: pre;" direction="ltr" dominant-baseline="text-before-edge">SUBSCRIBE TO</text><text x="57.983333587646484" y="50.400000000000006" font-family="Cascadia, Segoe UI Emoji" font-size="14.139835307083437px" fill="#000000" text-anchor="middle" style="white-space: pre;" direction="ltr" dominant-baseline="text-before-edge">READINGS TOPIC</text></g><g stroke-linecap="round" transform="translate(107.99999999999812 644) rotate(0 67.5 37.5)"><path d="M0 0 C48.1 0, 96.19 0, 135 0 M0 0 C37.42 0, 74.83 0, 135 0 M135 0 C135 29.51, 135 59.03, 135 75 M135 0 C135 19.01, 135 38.02, 135 75 M135 75 C88.04 75, 41.08 75, 0 75 M135 75 C100.01 75, 65.01 75, 0 75 M0 75 C0 47.67, 0 20.33, 0 0 M0 75 C0 48.75, 0 22.49, 0 0" stroke="#000000" stroke-width="1" fill="none"></path></g><g transform="translate(142.925000190733 825) rotate(0 9.574999809265137 6.530728199970383)"><text x="9.574999809265137" y="0" font-family="Cascadia, Segoe UI Emoji" font-size="10.884546999950606px" fill="#000000" text-anchor="middle" style="white-space: pre;" direction="ltr" dominant-baseline="text-before-edge">YES</text></g><g transform="translate(194.925000190733 416) rotate(0 11.574999809265137 7.894848999983537)"><text x="11.574999809265137" y="0" font-family="Cascadia, Segoe UI Emoji" font-size="13.158081666639225px" fill="#000000" text-anchor="middle" style="white-space: pre;" direction="ltr" dominant-baseline="text-before-edge">YES</text></g><g transform="translate(126.38333511352351 455) rotate(0 56.11666488647461 16.423039880612066)"><text x="56.11666488647461" y="0" font-family="Cascadia, Segoe UI Emoji" font-size="13.68586656717672px" fill="#000000" text-anchor="middle" style="white-space: pre;" direction="ltr" dominant-baseline="text-before-edge">FETCH PREVIOUS</text><text x="56.11666488647461" y="16.423039880612063" font-family="Cascadia, Segoe UI Emoji" font-size="13.68586656717672px" fill="#000000" text-anchor="middle" style="white-space: pre;" direction="ltr" dominant-baseline="text-before-edge">DAY READINGS</text></g><g stroke-linecap="round" transform="translate(118.99999999999812 451) rotate(0 62 21)"><path d="M0 0 C37.72 0, 75.44 0, 124 0 M0 0 C47.52 0, 95.03 0, 124 0 M124 0 C124 10.71, 124 21.42, 124 42 M124 0 C124 11.61, 124 23.22, 124 42 M124 42 C82.38 42, 40.75 42, 0 42 M124 42 C95.44 42, 66.88 42, 0 42 M0 42 C0 31.59, 0 21.18, 0 0 M0 42 C0 28.86, 0 15.72, 0 0" stroke="#000000" stroke-width="1" fill="none"></path></g><g transform="translate(101.8416671752911 530) rotate(0 76.15833282470703 16.39996271817381)"><text x="76.15833282470703" y="0" font-family="Cascadia, Segoe UI Emoji" font-size="13.666635598478157px" fill="#000000" text-anchor="middle" style="white-space: pre;" direction="ltr" dominant-baseline="text-before-edge">RENDER DAY READINGS</text><text x="76.15833282470703" y="16.399962718173793" font-family="Cascadia, Segoe UI Emoji" font-size="13.666635598478157px" fill="#000000" text-anchor="middle" style="white-space: pre;" direction="ltr" dominant-baseline="text-before-edge">ON A CHART</text></g><g stroke-linecap="round"><g transform="translate(108.50751879699061 522) rotate(0 59.99248120300757 22)"><path d="M0 0 C39.47 0, 78.95 0, 160.99 0 M0 0 C56.7 0, 113.4 0, 160.99 0 M160.99 0 C154.29 8.82, 147.6 17.64, 127.58 44 M160.99 0 C150.38 13.98, 139.76 27.96, 127.58 44 M127.58 44 C63.7 44, -0.17 44, -41.01 44 M127.58 44 C65.69 44, 3.79 44, -41.01 44 M-41.01 44 C-28.04 30.08, -15.07 16.16, 0 0 M-41.01 44 C-31.79 34.11, -22.57 24.21, 0 0" stroke="#000000" stroke-width="1" fill="none"></path></g></g><mask></mask><g transform="translate(125.79999923705867 768) rotate(0 52.70000076293945 18.00639429998847)"><text x="52.70000076293945" y="0" font-family="Cascadia, Segoe UI Emoji" font-size="15.00532858332373px" fill="#000000" text-anchor="middle" style="white-space: pre;" direction="ltr" dominant-baseline="text-before-edge">SUCCESSFUL</text><text x="52.70000076293945" y="18.006394299988468" font-family="Cascadia, Segoe UI Emoji" font-size="15.00532858332373px" fill="#000000" text-anchor="middle" style="white-space: pre;" direction="ltr" dominant-baseline="text-before-edge">CONNECTION ?</text></g><g stroke-linecap="round" transform="translate(90.99999999999812 748) rotate(0 83 39)"><path d="M84 0 C114.06 14.66, 144.12 29.32, 166 40 M84 0 C102.75 9.15, 121.5 18.29, 166 40 M166 40 C138.5 52.75, 110.99 65.49, 84 78 M166 40 C134.42 54.64, 102.83 69.27, 84 78 M84 78 C61.97 68.03, 39.94 58.07, 0 40 M84 78 C57.59 66.05, 31.19 54.11, 0 40 M0 40 C28.14 26.6, 56.29 13.2, 84 0 M0 40 C27.9 26.71, 55.8 13.43, 84 0" stroke="#000000" stroke-width="1" fill="none"></path></g><g transform="translate(135.0833320617657 912) rotate(0 40.91666793823242 16.744582659798766)"><text x="40.91666793823242" y="0" font-family="Cascadia, Segoe UI Emoji" font-size="13.953818883165642px" fill="#000000" text-anchor="middle" style="white-space: pre;" direction="ltr" dominant-baseline="text-before-edge">LISTEN FOR</text><text x="40.91666793823242" y="16.744582659798766" font-family="Cascadia, Segoe UI Emoji" font-size="13.953818883165642px" fill="#000000" text-anchor="middle" style="white-space: pre;" direction="ltr" dominant-baseline="text-before-edge">MESSAGES</text></g><g stroke-linecap="round" transform="translate(127.99999999999812 908) rotate(0 46.5 20)"><path d="M0 0 C34.61 0, 69.23 0, 93 0 M0 0 C20.82 0, 41.64 0, 93 0 M93 0 C93 11.05, 93 22.11, 93 40 M93 0 C93 14.31, 93 28.62, 93 40 M93 40 C72.28 40, 51.56 40, 0 40 M93 40 C58.58 40, 24.15 40, 0 40 M0 40 C0 29.99, 0 19.98, 0 0 M0 40 C0 25.45, 0 10.89, 0 0" stroke="#000000" stroke-width="1" fill="none"></path></g><g transform="translate(112.9666671752911 997) rotate(0 64.53333282470703 16.514387174974104)"><text x="64.53333282470703" y="0" font-family="Cascadia, Segoe UI Emoji" font-size="13.761989312478386px" fill="#000000" text-anchor="middle" style="white-space: pre;" direction="ltr" dominant-baseline="text-before-edge">HAS A READING</text><text x="64.53333282470703" y="16.51438717497407" font-family="Cascadia, Segoe UI Emoji" font-size="13.761989312478386px" fill="#000000" text-anchor="middle" style="white-space: pre;" direction="ltr" dominant-baseline="text-before-edge">BEEN PUBLISHED ?</text></g><g stroke-linecap="round" transform="translate(79.99999999999812 976) rotate(0 97 41)"><path d="M98 0 C124.89 11.49, 151.79 22.97, 194 41 M98 0 C125.75 11.85, 153.49 23.7, 194 41 M194 41 C161.14 55.03, 128.28 69.07, 98 82 M194 41 C171.3 50.69, 148.61 60.39, 98 82 M98 82 C70.21 70.38, 42.43 58.75, 0 41 M98 82 C74.69 72.25, 51.37 62.49, 0 41 M0 41 C25.88 30.17, 51.76 19.35, 98 0 M0 41 C30.9 28.07, 61.8 15.15, 98 0" stroke="#000000" stroke-width="1" fill="none"></path></g><g transform="translate(105.65000152587703 1091) rotate(0 73.3499984741211 16.69911181015857)"><text x="73.3499984741211" y="0" font-family="Cascadia, Segoe UI Emoji" font-size="13.91592650846551px" fill="#000000" text-anchor="middle" style="white-space: pre;" direction="ltr" dominant-baseline="text-before-edge">RE-RENDER THE </text><text x="73.3499984741211" y="16.699111810158612" font-family="Cascadia, Segoe UI Emoji" font-size="13.91592650846551px" fill="#000000" text-anchor="middle" style="white-space: pre;" direction="ltr" dominant-baseline="text-before-edge">READINGS COMPONENT</text></g><g stroke-linecap="round"><g transform="translate(122.68045112781766 1088) rotate(0 57.31954887218046 21.5)"><path d="M0 0 C54.4 0, 108.81 0, 153.82 0 M0 0 C33.6 0, 67.21 0, 153.82 0 M153.82 0 C144.44 12.63, 135.06 25.26, 121.89 43 M153.82 0 C141.79 16.2, 129.77 32.4, 121.89 43 M121.89 43 C63.69 43, 5.48 43, -39.18 43 M121.89 43 C75.91 43, 29.93 43, -39.18 43 M-39.18 43 C-28.09 30.82, -16.99 18.65, 0 0 M-39.18 43 C-23.99 26.33, -8.8 9.66, 0 0" stroke="#000000" stroke-width="1" fill="none"></path></g></g><mask></mask><g transform="translate(125.99999999999812 1188) rotate(0 52 16.366825986441995)"><text x="52" y="0" font-family="Cascadia, Segoe UI Emoji" font-size="13.639021655368301px" fill="#000000" text-anchor="middle" style="white-space: pre;" direction="ltr" dominant-baseline="text-before-edge">HAS USER LEFT</text><text x="52" y="16.36682598644196" font-family="Cascadia, Segoe UI Emoji" font-size="13.639021655368301px" fill="#000000" text-anchor="middle" style="white-space: pre;" direction="ltr" dominant-baseline="text-before-edge">THE PAGE ?</text></g><g stroke-linecap="round" transform="translate(98.99999999999812 1163) rotate(0 76.5 37)"><path d="M77 0 C97.61 10.31, 118.22 20.61, 153 38 M77 0 C101.05 12.02, 125.09 24.05, 153 38 M153 38 C124.4 51.55, 95.8 65.09, 77 74 M153 38 C132.5 47.71, 112 57.42, 77 74 M77 74 C50.62 61.67, 24.25 49.34, 0 38 M77 74 C57.56 64.91, 38.11 55.82, 0 38 M0 38 C28.19 24.09, 56.38 10.18, 77 0 M0 38 C20.51 27.88, 41.01 17.76, 77 0" stroke="#000000" stroke-width="1" fill="none"></path></g><g transform="translate(156.26666641235164 1276) rotate(0 18.233333587646484 9.344227349997482)"><text x="18.233333587646484" y="0" font-family="Cascadia, Segoe UI Emoji" font-size="15.573712249995884px" fill="#000000" text-anchor="middle" style="white-space: pre;" direction="ltr" dominant-baseline="text-before-edge">STOP</text></g><g stroke-linecap="round" transform="translate(143.99999999999812 1268) rotate(0 32 17.5)"><path d="M64 17.5 C64 18.51, 63.84 19.54, 63.51 20.54 C63.19 21.54, 62.7 22.53, 62.07 23.49 C61.44 24.44, 60.64 25.37, 59.71 26.25 C58.79 27.13, 57.7 27.97, 56.51 28.75 C55.32 29.52, 53.99 30.25, 52.57 30.91 C51.15 31.56, 49.6 32.15, 48 32.66 C46.4 33.16, 44.69 33.6, 42.94 33.94 C41.2 34.29, 39.38 34.56, 37.56 34.73 C35.73 34.91, 33.85 35, 32 35 C30.15 35, 28.27 34.91, 26.44 34.73 C24.62 34.56, 22.8 34.29, 21.06 33.94 C19.31 33.6, 17.6 33.16, 16 32.66 C14.4 32.15, 12.85 31.56, 11.43 30.91 C10.01 30.25, 8.68 29.52, 7.49 28.75 C6.3 27.97, 5.21 27.13, 4.29 26.25 C3.36 25.37, 2.56 24.44, 1.93 23.49 C1.3 22.53, 0.81 21.54, 0.49 20.54 C0.16 19.54, 0 18.51, 0 17.5 C0 16.49, 0.16 15.46, 0.49 14.46 C0.81 13.46, 1.3 12.47, 1.93 11.51 C2.56 10.56, 3.36 9.63, 4.29 8.75 C5.21 7.87, 6.3 7.03, 7.49 6.25 C8.68 5.48, 10.01 4.75, 11.43 4.09 C12.85 3.44, 14.4 2.85, 16 2.34 C17.6 1.84, 19.31 1.4, 21.06 1.06 C22.8 0.71, 24.62 0.44, 26.44 0.27 C28.27 0.09, 30.15 0, 32 0 C33.85 0, 35.73 0.09, 37.56 0.27 C39.38 0.44, 41.2 0.71, 42.94 1.06 C44.69 1.4, 46.4 1.84, 48 2.34 C49.6 2.85, 51.15 3.44, 52.57 4.09 C53.99 4.75, 55.32 5.48, 56.51 6.25 C57.7 7.03, 58.79 7.87, 59.71 8.75 C60.64 9.63, 61.44 10.56, 62.07 11.51 C62.7 12.47, 63.19 13.46, 63.51 14.46 C63.84 15.46, 63.92 16.99, 64 17.5 C64.08 18.01, 64.08 16.99, 64 17.5" stroke="#000000" stroke-width="1" fill="none"></path></g></svg>